HIERARCHY
ROOT Pelvis
{
	OFFSET 0.000000 0.000000 0.000000
	CHANNELS 6 Xposition Yposition Zposition Xrotation Yrotation Zrotation
	JOINT LeftUpLeg_virtual
	{
		OFFSET 0.000000 0.000000 0.000000
		CHANNELS 3 Xrotation Yrotation Zrotation
		JOINT LeftUpLeg
		{
			OFFSET 18.735201 -5.666702 -4.541200
			CHANNELS 3 Xrotation Yrotation Zrotation
			JOINT LeftLeg
			{
				OFFSET -0.021200 -31.938179 0.493100
				CHANNELS 3 Xrotation Yrotation Zrotation
				JOINT LeftFoot
				{
					OFFSET 0.021200 -31.938179 -4.336299
					CHANNELS 3 Xrotation Yrotation Zrotation
					JOINT LeftToeBase
					{
						OFFSET 0.943001 -26.722000 15.023500
						CHANNELS 3 Xrotation Yrotation Zrotation
						End Site
						{
							OFFSET 0 0 0
						}
					}
				}
			}
		}
	}
	JOINT RightUpLeg_virtual
	{
		OFFSET 0.000000 0.000000 0.000000
		CHANNELS 3 Xrotation Yrotation Zrotation
		JOINT RightUpLeg
		{
			OFFSET -18.735201 -5.666702 -4.541200
			CHANNELS 3 Xrotation Yrotation Zrotation
			JOINT RightLeg
			{
				OFFSET 0.018946 -31.938133 0.493100
				CHANNELS 3 Xrotation Yrotation Zrotation
				JOINT RightFoot
				{
					OFFSET -0.018946 -31.938126 -4.336299
					CHANNELS 3 Xrotation Yrotation Zrotation
					JOINT RightToeBase
					{
						OFFSET -0.943001 -26.722004 15.023500
						CHANNELS 3 Xrotation Yrotation Zrotation
						End Site
						{
							OFFSET 0 0 0
						}
					}
				}
			}
		}
	}
	JOINT Hips_virtual
	{
		OFFSET 0.000000 0.000000 0.000000
		CHANNELS 3 Xrotation Yrotation Zrotation
		JOINT Hips
		{
			OFFSET -0.000000 -0.000000 -0.000000
			CHANNELS 3 Xrotation Yrotation Zrotation
			JOINT Spine
			{
				OFFSET 0.000000 10.199997 -0.299500
				CHANNELS 3 Xrotation Yrotation Zrotation
				JOINT Spine1
				{
					OFFSET 0.000000 11.900002 -1.516600
					CHANNELS 3 Xrotation Yrotation Zrotation
					JOINT Spine2
					{
						OFFSET 0.000000 13.600006 -2.842500
						CHANNELS 3 Xrotation Yrotation Zrotation
						JOINT Neck_virtual
						{
							OFFSET 0.000000 0.000000 0.000000
							CHANNELS 3 Xrotation Yrotation Zrotation
							JOINT Neck
							{
								OFFSET 0.000000 9.624100 -2.890100
								CHANNELS 3 Xrotation Yrotation Zrotation
								JOINT Head
								{
									OFFSET 0.000000 14.068802 -1.351900
									CHANNELS 3 Xrotation Yrotation Zrotation
									End Site
									{
										OFFSET 0 0 0
									}
								}
							}
						}
						JOINT LeftShoulder_virtual
						{
							OFFSET 0.000000 0.000000 0.000000
							CHANNELS 3 Xrotation Yrotation Zrotation
							JOINT LeftShoulder
							{
								OFFSET 15.263000 10.923401 -0.547700
								CHANNELS 3 Xrotation Yrotation Zrotation
								JOINT LeftArm
								{
									OFFSET 25.438599 -2.830597 -13.032500
									CHANNELS 3 Xrotation Yrotation Zrotation
									JOINT LeftForeArm
									{
										OFFSET 29.960503 0.000000 0.000000
										CHANNELS 3 Xrotation Yrotation Zrotation
										JOINT LeftHand
										{
											OFFSET 27.849251 0.000000 0.000000
											CHANNELS 3 Xrotation Yrotation Zrotation
											End Site
											{
												OFFSET 0 0 0
											}
										}
									}
								}
							}
						}
						JOINT RightShoulder_virtual
						{
							OFFSET 0.000000 0.000000 0.000000
							CHANNELS 3 Xrotation Yrotation Zrotation
							JOINT RightShoulder
							{
								OFFSET -15.263000 10.923401 -0.547700
								CHANNELS 3 Xrotation Yrotation Zrotation
								JOINT RightArm
								{
									OFFSET -25.438599 -2.830597 -13.032500
									CHANNELS 3 Xrotation Yrotation Zrotation
									JOINT RightForeArm
									{
										OFFSET -29.960503 0.000000 0.000000
										CHANNELS 3 Xrotation Yrotation Zrotation
										JOINT RightHand
										{
											OFFSET -27.849251 0.000000 0.000000
											CHANNELS 3 Xrotation Yrotation Zrotation
											End Site
											{
												OFFSET 0 0 0
											}
										}
									}
								}
							}
						}
					}
				}
			}
		}
	}
}
MOTION
Frames: 13
Frame Time: 0.03333333
2.268029 190.754211 -23.928848 0.000000 0.000000 0.000000 5.213639 -7.491863 0.387399 -95.018026 5.543837 27.647165 100.622647 -2.546124 4.775318 -1.095036 9.493789 -33.220609 0.000000 0.000000 0.000000 5.213639 -7.491863 0.387399 -113.470315 17.589880 -13.828117 108.911888 -1.521709 -1.160595 13.810255 -6.826935 38.751713 0.000000 0.000000 0.000000 5.213639 -7.491863 0.387399 0.000000 0.000000 0.000000 8.444399 -0.616639 -0.772518 16.887410 -1.177193 -1.114027 0.000000 0.000000 0.000000 16.887422 -1.177189 -1.114029 -5.366345 1.232904 -0.531178 0.000000 0.000000 0.000000 16.887422 -1.177189 -1.114029 -0.612870 -14.977174 27.292802 -67.334785 -8.203781 -15.014248 16.808250 -68.480317 48.052987 0.000000 0.000000 0.000000 16.887422 -1.177189 -1.114029 6.218779 17.756043 -13.894191 -82.947921 43.284493 24.548721 -18.192465 53.742473 -21.031667 0.000000 0.000000 0.000000 
2.360624 190.651367 -24.725918 0.000000 0.000000 0.000000 3.846569 -7.639760 0.451745 -98.568133 3.757194 27.911413 100.442371 -4.017918 3.241899 -0.579024 9.374920 -33.174478 0.000000 0.000000 0.000000 3.846569 -7.639760 0.451745 -114.224252 14.664997 -14.625887 104.752938 0.108778 -1.818710 13.014475 -6.714222 37.902782 0.000000 0.000000 0.000000 3.846569 -7.639760 0.451745 0.000000 0.000000 0.000000 9.096238 -0.521808 -0.778540 18.191662 -0.858376 -1.119250 0.000000 0.000000 0.000000 18.191661 -0.858375 -1.119249 -5.514398 1.377120 -0.615039 0.000000 0.000000 0.000000 18.191661 -0.858375 -1.119249 0.325156 -15.904565 27.503488 -69.510582 -10.660073 -14.371486 10.803134 -66.204231 45.525492 0.000000 0.000000 0.000000 18.191661 -0.858375 -1.119249 6.708628 18.898923 -14.296314 -85.364094 45.042430 22.649408 -20.331851 51.306212 -20.083119 0.000000 0.000000 0.000000 
2.498860 190.405823 -25.374966 0.000000 0.000000 0.000000 2.543212 -7.670462 0.546406 -101.214319 3.132136 27.546640 98.128133 -5.182957 2.209607 0.628568 8.956909 -32.446636 0.000000 0.000000 0.000000 2.543212 -7.670462 0.546406 -113.618018 11.182908 -15.490172 99.343940 2.072919 -2.179299 11.340418 -6.756049 35.747643 0.000000 0.000000 0.000000 2.543212 -7.670462 0.546406 0.000000 -0.000001 0.000000 9.690829 -0.418120 -0.760583 19.380863 -0.593883 -1.137936 0.000000 0.000000 0.000000 19.380875 -0.593885 -1.137935 -5.589151 1.518246 -0.685184 0.000000 0.000000 0.000000 19.380875 -0.593885 -1.137935 1.416566 -16.917214 27.896842 -71.463914 -13.211112 -13.429065 5.023494 -63.827230 43.312449 0.000000 0.000000 0.000000 19.380875 -0.593885 -1.137935 7.401554 20.145757 -15.002644 -85.334792 46.412249 18.300088 -22.943300 49.160246 -18.542920 0.000000 0.000000 0.000000 
2.654553 190.051483 -25.904625 0.000000 0.000000 0.000000 1.363459 -7.643986 0.664872 -102.439628 3.674959 26.636199 93.876927 -6.282370 1.600541 1.901240 8.457643 -30.825702 0.000000 0.000000 0.000000 1.363459 -7.643986 0.664872 -111.620761 7.288839 -16.270236 92.844974 4.267010 -2.197078 9.004565 -6.842136 32.284563 0.000000 0.000000 0.000000 1.363459 -7.643986 0.664872 0.000000 -0.000001 0.000000 10.215957 -0.309090 -0.723145 20.431049 -0.404106 -1.150168 0.000000 0.000000 0.000000 20.431030 -0.404107 -1.150168 -5.587169 1.648795 -0.734394 0.000000 0.000000 0.000000 20.431030 -0.404107 -1.150168 2.554311 -17.796335 28.564094 -72.885085 -15.245551 -11.944084 -0.383360 -61.659765 41.125054 0.000000 0.000000 0.000000 20.431030 -0.404107 -1.150168 8.191197 21.269083 -15.938340 -83.291336 47.315862 12.192950 -25.736563 47.219635 -16.682250 0.000000 0.000000 0.000000 
2.798155 189.558136 -26.304485 0.000000 0.000000 0.000000 0.336172 -7.620556 0.782746 -102.430469 5.025554 25.355151 88.121803 -7.396473 1.406665 3.925747 7.570081 -28.216203 0.000000 0.000000 0.000000 0.336172 -7.620556 0.782746 -108.505498 3.190830 -16.848791 85.589613 6.461886 -1.892446 6.550411 -6.735686 27.846060 0.000000 0.000000 0.000000 0.336172 -7.620556 0.782746 0.000000 0.000000 0.000000 10.658767 -0.190419 -0.663841 21.316522 -0.290757 -1.141271 0.000000 0.000000 0.000000 21.316520 -0.290755 -1.141271 -5.508975 1.762484 -0.758586 0.000000 0.000000 0.000000 21.316520 -0.290755 -1.141271 3.604441 -18.354388 29.488030 -73.580767 -16.357436 -9.940307 -5.383954 -59.850093 38.716890 0.000000 0.000000 0.000000 21.316520 -0.290755 -1.141271 8.955279 22.064439 -17.026265 -80.139101 47.684249 5.475440 -28.400688 45.367264 -14.783270 0.000000 0.000000 0.000000 
2.869038 188.907990 -26.582829 0.000000 0.000000 0.000000 -0.546161 -7.623622 0.889256 -101.413037 6.918772 23.885064 81.499415 -8.560758 1.469130 6.833301 6.402676 -24.511555 0.000000 0.000000 0.000000 -0.546161 -7.623622 0.889256 -104.679049 -0.950593 -17.171172 77.933435 8.332880 -1.355232 4.622049 -6.226019 23.031789 0.000000 0.000000 0.000000 -0.546161 -7.623622 0.889256 0.000000 0.000000 0.000000 11.009081 -0.078752 -0.592036 22.017091 -0.240819 -1.105279 0.000000 0.000000 0.000000 22.017110 -0.240820 -1.105277 -5.359285 1.855159 -0.757436 0.000000 0.000000 0.000000 22.017110 -0.240820 -1.105277 4.435849 -18.482762 30.580874 -73.590801 -16.431798 -7.699392 -9.997842 -58.359083 35.945865 0.000000 0.000000 0.000000 22.017110 -0.240820 -1.105277 9.606991 22.384661 -18.252320 -76.857393 47.554475 -0.696421 -30.694785 43.545687 -13.085789 0.000000 0.000000 0.000000 
2.806957 188.088989 -26.782444 0.000000 0.000000 0.000000 -1.325512 -7.633309 0.992333 -99.373488 9.252748 22.364944 74.699354 -9.927511 1.527338 9.503827 5.583174 -19.794622 0.000000 0.000000 0.000000 -1.325512 -7.633309 0.992333 -100.613188 -4.987207 -17.258990 70.259916 9.608284 -0.717194 3.744922 -5.253126 18.545528 0.000000 0.000000 0.000000 -1.325512 -7.633309 0.992333 0.000000 0.000000 0.000000 11.263076 -0.010650 -0.526436 22.525112 -0.233015 -1.044681 0.000000 0.000000 0.000000 22.525102 -0.233015 -1.044680 -5.147164 1.925312 -0.734171 0.000000 0.000000 0.000000 22.525102 -0.233015 -1.044680 4.957429 -18.168880 31.734579 -73.124401 -15.655249 -5.604224 -14.257573 -56.993878 32.782548 0.000000 0.000000 0.000000 22.525102 -0.233015 -1.044680 10.130649 22.158372 -19.697099 -74.150064 46.992084 -5.532347 -32.523086 41.786602 -11.731352 0.000000 0.000000 0.000000 
2.609395 187.063141 -26.905422 0.000000 0.000000 0.000000 -2.068961 -7.621782 1.097503 -96.519070 11.865318 20.899288 68.347353 -11.521330 1.468396 11.110329 5.377709 -14.489437 0.000000 0.000000 0.000000 -2.068961 -7.621782 1.097503 -96.858913 -8.718622 -17.225098 63.202124 10.211257 -0.125533 4.028496 -3.953518 14.976949 0.000000 0.000000 0.000000 -2.068961 -7.621782 1.097503 0.000000 -0.000001 0.000000 11.425380 -0.001531 -0.477130 22.849744 -0.244378 -0.967200 0.000000 0.000000 0.000000 22.849747 -0.244380 -0.967198 -4.885132 1.973934 -0.694584 0.000000 0.000000 0.000000 22.849747 -0.244380 -0.967198 5.147316 -17.483794 32.861369 -72.404267 -14.421647 -3.938196 -18.180249 -55.484116 29.300033 0.000000 0.000000 0.000000 22.849747 -0.244380 -0.967198 10.579535 21.396076 -21.515815 -72.327605 45.952249 -8.728729 -33.944309 40.185626 -10.744753 0.000000 0.000000 0.000000 
2.238777 185.739899 -26.769848 0.000000 0.000000 0.000000 -2.856345 -7.489443 1.258394 -93.299332 14.501791 19.594378 63.431400 -13.286079 1.320341 10.660432 5.675706 -9.154338 0.000000 0.000000 0.000000 -2.856345 -7.489443 1.258394 -92.838356 -12.663055 -16.510048 53.345560 9.364416 0.236047 11.129521 -1.891609 12.110672 0.000000 0.000000 0.000000 -2.856345 -7.489443 1.258394 0.000000 0.000000 0.000000 11.509192 -0.123660 -0.481196 23.017555 -0.255262 -0.881365 0.000000 0.000000 0.000000 23.017534 -0.255258 -0.881369 -4.587958 2.003976 -0.645678 0.000000 0.000000 0.000000 23.017534 -0.255258 -0.881369 5.058433 -16.552482 33.912282 -71.568758 -13.168065 -2.777418 -21.755575 -53.568733 25.644492 0.000000 0.000000 0.000000 23.017534 -0.255258 -0.881369 11.038702 20.184399 -23.873265 -71.352159 44.246648 -10.401450 -35.120286 38.850621 -10.056454 0.000000 0.000000 0.000000 
1.788291 184.273926 -26.579582 0.000000 0.000000 0.000000 -3.761709 -7.237817 1.465909 -84.611755 18.583551 17.115880 53.366249 -15.645154 1.065618 6.532853 6.007735 -4.287889 0.000000 0.000000 0.000000 -3.761709 -7.237817 1.465909 -89.472391 -15.894351 -15.884986 45.256137 8.494549 0.332522 17.562059 -0.260164 10.246749 0.000000 0.000000 0.000000 -3.761709 -7.237817 1.465909 0.000000 0.000000 0.000000 11.534116 -0.326640 -0.528624 23.068259 -0.251980 -0.792932 0.000000 0.000000 0.000000 23.068243 -0.251979 -0.792934 -4.270881 2.019363 -0.594263 0.000000 0.000000 0.000000 23.068243 -0.251979 -0.792934 4.799658 -15.519961 34.873378 -70.672568 -12.229572 -2.008217 -24.953808 -51.061862 21.983606 0.000000 0.000000 0.000000 23.068243 -0.251979 -0.792934 11.581062 18.667694 -26.863704 -70.940319 41.650856 -10.947452 -36.237582 37.839289 -9.540469 0.000000 0.000000 0.000000 
1.541809 182.509262 -26.128883 0.000000 0.000000 0.000000 -4.831803 -7.216768 1.449976 -80.067808 21.166760 15.388187 45.059895 -16.673612 0.975767 12.679894 5.481800 -1.375389 0.000000 0.000000 0.000000 -4.831803 -7.216768 1.449976 -91.798740 -16.621832 -17.562447 50.771006 8.772122 0.193572 12.279920 0.098582 10.230250 0.000000 0.000000 0.000000 -4.831803 -7.216768 1.449976 0.000000 0.000000 0.000000 11.524150 -0.170644 -0.419271 23.047896 -0.227261 -0.703354 0.000000 0.000000 0.000000 23.047888 -0.227261 -0.703354 -3.948118 2.024074 -0.545947 0.000000 0.000000 0.000000 23.047888 -0.227261 -0.703354 4.501751 -14.521501 35.751006 -69.727789 -11.772281 -1.413572 -27.740332 -47.885835 18.457770 0.000000 0.000000 0.000000 23.047888 -0.227261 -0.703354 12.242680 17.018045 -30.451043 -70.717955 38.069091 -10.863248 -37.434194 37.109002 -9.049453 0.000000 0.000000 0.000000 
1.192509 180.846268 -25.742191 0.000000 0.000000 0.000000 -6.109296 -6.906955 1.579470 -80.999814 21.833009 15.898099 50.628296 -16.983878 1.245501 4.958187 4.932012 2.166314 0.000000 0.000000 0.000000 -6.109296 -6.906955 1.579470 -94.056390 -16.900267 -19.211068 55.744350 8.843364 -0.209139 8.764639 0.319105 10.496705 0.000000 0.000000 0.000000 -6.109296 -6.906955 1.579470 0.000000 0.000000 0.000000 11.499978 -0.215400 -0.408474 22.999938 -0.178966 -0.610626 0.000000 0.000000 0.000000 22.999936 -0.178967 -0.610624 -3.631656 2.021288 -0.504579 0.000000 0.000000 0.000000 22.999936 -0.178967 -0.610624 4.283548 -13.660644 36.557426 -68.733027 -11.805483 -0.769696 -30.081103 -44.074159 15.161801 0.000000 0.000000 0.000000 22.999936 -0.178967 -0.610624 13.023073 15.402661 -34.452355 -70.393132 33.644726 -10.564402 -38.749705 36.514546 -8.451907 0.000000 0.000000 0.000000 
0.849174 179.079590 -25.003239 0.000000 0.000000 0.000000 -7.589876 -6.511174 1.703861 -82.316805 22.063272 16.679996 56.475911 -16.548486 1.498525 -1.065199 3.834257 4.461683 0.000000 0.000000 0.000000 -7.589876 -6.511174 1.703861 -97.061004 -16.510808 -20.885996 61.551144 8.820493 -0.785052 6.796239 0.332562 10.642880 0.000000 0.000000 0.000000 -7.589876 -6.511174 1.703861 0.000000 0.000000 0.000000 11.478598 -0.237591 -0.389809 22.957548 -0.108068 -0.511701 0.000000 0.000000 0.000000 22.957564 -0.108066 -0.511700 -3.331036 2.013115 -0.472230 0.000000 0.000000 0.000000 22.957564 -0.108066 -0.511700 4.226165 -12.996085 37.302221 -67.686396 -12.237956 0.075547 -31.938576 -39.759532 12.159190 0.000000 0.000000 0.000000 22.957564 -0.108066 -0.511700 13.894744 13.958228 -38.568675 -69.848001 28.754362 -10.293764 -40.107106 35.870350 -7.676481 0.000000 0.000000 0.000000 
